# xmcd CD database file
#
# Track frame offsets:
#	150
#	13617
#	24860
#	38642
#	54840
#	72747
#	92485
#	104465
#	117997
#	131257
#	147475
#
# Disc length: 2210 seconds
#
# Revision: 1
# Processed by: cddbd v1.5.1PL0 Copyright (c) Steve Scherf et al.
# Submitted via: CDex 1.51
#
DISCID=8c08a00b
DTITLE=Mississippi Mike - Mississippi Mike plays the Delta Boogie
DYEAR=1900
DGENRE=Bluegrass
TTITLE0=Midnight Special
TTITLE1=Delta Boogie Nr. 1
TTITLE2=Glory Hallelujah (traditional)
TTITLE3=Alligator Blues
TTITLE4=Rennegade Blues
TTITLE5=Jesus will doe the best He can
TTITLE6=Redriver Valley  (traditional)
TTITLE7=When tghe saints go marching in  (traditional)
TTITLE8=Can't live without your love
TTITLE9=Your are my sunshine (traditional)
TTITLE10=Honey Please don't go
EXTD=
EXTT0=
EXTT1=
EXTT2=
EXTT3=
EXTT4=
EXTT5=
EXTT6=
EXTT7=
EXTT8=
EXTT9=
EXTT10=
PLAYORDER=
